<svg xmlns="http://www.w3.org/2000/svg" width="38" height="38" viewBox="0 0 38 38"><defs><style>.a{fill:rgba(41,203,151,0.1);stroke:rgba(41,203,151,0.1);stroke-miterlimit:10;}.b{fill:none;}.c{fill:#28ca96;}.d{stroke:none;}</style></defs><g transform="translate(-0.5 -0.5)"><g class="a" transform="translate(0.5 0.5)"><circle class="d" cx="19" cy="19" r="19"/><circle class="b" cx="19" cy="19" r="18.5"/></g><g transform="translate(7.5 7.5)"><path class="b" d="M0,0H24V24H0Z"/><path class="c" d="M19,3H18V1H16V3H8V1H6V3H5A2.006,2.006,0,0,0,3,5V19a2.006,2.006,0,0,0,2,2H19a2.006,2.006,0,0,0,2-2V5A2.006,2.006,0,0,0,19,3Zm0,16H5V9H19ZM5,7V5H19V7Z"/><path class="c" d="M10.56,17.46l5.93-5.93-1.06-1.06-4.87,4.87L8.45,13.23,7.39,14.29Z"/></g></g></svg>