<svg xmlns="http://www.w3.org/2000/svg" width="58" height="14.187" viewBox="0 0 58 14.187">
  <g id="Untitled" transform="translate(0 0)">
    <path id="Path_48868" data-name="Path 48868" d="M4.053,6.418H6.2a2.626,2.626,0,0,0,1.7-.432,2.592,2.592,0,0,0,.685-1.613,1.689,1.689,0,0,0-.2-1.4,2.007,2.007,0,0,0-1.451-.383L4.59,2.6,4.053,6.418ZM0,14.028,1.927.461Q3.756.285,7,.285a6.041,6.041,0,0,1,3.746.934q1.182.934.864,3.195a4.261,4.261,0,0,1-.9,2.251,3.273,3.273,0,0,1-2.176.994l-.02.118a2.216,2.216,0,0,1,1.65,2.085l.715,4.167h-3.1L7.133,9.821A1.346,1.346,0,0,0,6.8,8.965a1.221,1.221,0,0,0-.815-.225L3.715,8.719,2.96,14.028Z" transform="translate(0 -0.166)" fill="#5cd464"/>
    <path id="Path_48869" data-name="Path 48869" d="M40.064,2.85H35.081a1.147,1.147,0,0,0-.8.229,1.386,1.386,0,0,0-.319.84l-.29,2.058h5.254l-.27,2.136H33.381l-.347,2.631a.969.969,0,0,0,.125.782.976.976,0,0,0,.744.227h4.926l-.077,2.235a56.857,56.857,0,0,1-5.776.2,2.958,2.958,0,0,1-2.375-.88,2.965,2.965,0,0,1-.56-2.4l1.062-7.8A3.06,3.06,0,0,1,32.1,1.13,3.227,3.227,0,0,1,34.289.417a61.177,61.177,0,0,1,6.143.218l-.367,2.216Zm23.7,4.192a10.738,10.738,0,0,1-1.663,5.1,4.415,4.415,0,0,1-3.625,1.42c-1.581,0-2.636-.469-3.134-1.395s-.6-2.629-.28-5.019A10.733,10.733,0,0,1,56.724,2.05,4.412,4.412,0,0,1,60.349.63c1.62,0,2.688.466,3.171,1.385s.573,2.626.242,5.028M60.349,0a5.049,5.049,0,0,0-4.088,1.583c-.87,1.041-1.495,2.877-1.857,5.459-.362,2.6-.238,4.455.369,5.521s1.865,1.624,3.72,1.624A5.046,5.046,0,0,0,62.581,12.6c.871-1.04,1.49-2.877,1.838-5.46.375-2.6.257-4.456-.35-5.521S62.2,0,60.349,0M75.386.243a32.7,32.7,0,0,0-3.66-.236C71.161-.007,70.7,0,70.343.026a6.718,6.718,0,0,0-1.155.2,2.4,2.4,0,0,0-1.008.5,3.151,3.151,0,0,0-.677.931,4.685,4.685,0,0,0-.422,1.476,3.506,3.506,0,0,0,.316,2.2,4.029,4.029,0,0,0,1.917,1.413l2.943,1.238A3.452,3.452,0,0,1,73.817,9.1a2.833,2.833,0,0,1,.175,1.8,2.809,2.809,0,0,1-1.125,2.131A6.484,6.484,0,0,1,70,13.557c-1.279.008-2.592-.033-3.918-.137L66,13.414l-.115.545.1.011a31.567,31.567,0,0,0,3.74.217c.628,0,1.146-.016,1.539-.049A7.367,7.367,0,0,0,72.5,13.92a2.483,2.483,0,0,0,1.047-.522,3.3,3.3,0,0,0,.7-.939A4.449,4.449,0,0,0,74.677,11a3.383,3.383,0,0,0-.288-2.253A4.49,4.49,0,0,0,72.347,7.31L69.4,6.072a2.867,2.867,0,0,1-1.43-1.111,3.093,3.093,0,0,1-.207-1.727,4.05,4.05,0,0,1,.345-1.26,2.481,2.481,0,0,1,.53-.76A1.858,1.858,0,0,1,69.42.83a5.146,5.146,0,0,1,.886-.164c.254-.019.611-.029,1.064-.029,1.066,0,2.385.053,3.919.157L75.367.8l.115-.545Zm-21.3.174h-3.02L47.955,8.3,47.283,10c-.227.58-.392,1-.577,1.468-.041.1-.086.119-.156.119h-.078c-.056,0-.1-.028-.115-.114-.046-.331-.094-.636-.138-.944-.023-.167-.048-.334-.066-.509L45.1.417h-3l1.909,12.5a.939.939,0,0,0,.312.6l.007,0a.92.92,0,0,0,.637.247h2.689a1.09,1.09,0,0,0,1.072-.754L54.2.417Z" transform="translate(-17.482 0)" fill="#5cd464"/>
  </g>
</svg>
